<?xml version="1.0" encoding="UTF-8"?>
<svg width="219px" height="219px" viewBox="0 0 219 219" version="1.1" xmlns="http://www.w3.org/2000/svg" xmlns:xlink="http://www.w3.org/1999/xlink">
    <!-- Generator: Sketch 58 (84663) - https://sketch.com -->
    <title>Untitled</title>
    <desc>Created with Sketch.</desc>
    <g id="Page-1" stroke="none" stroke-width="1" fill="none" fill-rule="evenodd">
        <g id="icon_business_loan_01" transform="translate(9.000000, 9.000000)">
            <polygon id="Layer_1_1_" points="1 1 201 1 201 201 1 201"></polygon>
            <g id="Layer_2_1_" fill="#AACD00" fill-rule="nonzero">
                <path d="M114.8,31.6 C109,33.1 109,36.8 109,38.4 C109,40 109,43.7 114.8,45.2 L114.8,31.6 Z M132.4,65.2 C132.4,63.6 132.4,59.9 126.6,58.4 L126.6,72 C132.4,70.5 132.4,66.8 132.4,65.2 Z" id="Shape"></path>
                <path d="M120.7,103.6 C149.3,103.6 172.5,80.4 172.5,51.8 C172.5,23.2 149.3,0 120.7,0 C92.1,0 68.9,23.2 68.9,51.8 C68.9,80.4 92.1,103.6 120.7,103.6 Z M104.9,53.7 C99.8,50.3 97.1,45 97.1,38.4 C97.1,31.8 99.8,26.5 104.9,23.1 C107.9,21.2 111.2,20 114.7,19.5 L114.7,13.6 L126.6,13.6 L126.6,19.5 C130.1,20 133.5,21.2 136.4,23.1 C141.5,26.5 144.2,31.8 144.2,38.4 L132.3,38.4 C132.3,36.8 132.3,33.1 126.5,31.6 L126.5,46.3 C130,46.8 133.4,48 136.3,49.9 C141.4,53.3 144.1,58.6 144.1,65.2 C144.1,71.8 141.4,77.1 136.3,80.5 C133.3,82.4 130,83.6 126.5,84.1 L126.5,89.9 L114.6,89.9 L114.6,84.1 C111.1,83.6 107.7,82.4 104.8,80.5 C99.7,77.1 97,71.8 97,65.2 L109,65.2 C109,66.8 109,70.5 114.8,72 L114.8,57.3 C111.3,56.8 107.9,55.6 104.9,53.7 Z M0.9,200 L30.2,200 L30.2,119.4 L0.9,119.4 L0.9,200 Z M146.8,152 L110.5,143.1 C107.3,142.3 105.4,139.1 106.1,135.9 C106.9,132.7 110.1,130.8 113.3,131.5 L137.5,137.4 C141.5,138.4 145.5,135.9 146.5,131.9 C146.6,131.3 146.7,130.8 146.7,130.2 C146.7,126.8 144.4,123.8 141.1,122.9 L95.9,111.5 C93.4,110.9 90.8,110.8 88.3,111.2 L42.2,118.4 L42.2,183.3 L71.1,180.1 L122.1,194.4 C125.2,195.3 128.6,194.9 131.4,193.3 L194.1,158.7 C198,156.5 199.9,152 198.8,147.7 C197.3,142.6 192,139.6 186.8,141 L146.8,152 Z" id="Shape"></path>
            </g>
        </g>
    </g>
</svg>