<svg xmlns="http://www.w3.org/2000/svg" viewBox="0 0 200 200"><defs><style>.cls-1{fill:none}.cls-2{fill:#37b442}</style></defs><title>_icon</title><path class="cls-1" d="M0 0h200v200H0z" id="Layer_1" data-name="Layer 1"/><g id="Layer_2" data-name="Layer 2"><path class="cls-2" d="M177.74 70.57L92.59 5.81a4.62 4.62 0 0 0-5.6 0L1.84 70.57a4.63 4.63 0 0 0 2.8 8.31h170.3a4.63 4.63 0 0 0 2.8-8.31zM7.51 172.5v11.14a2.21 2.21 0 0 0 2.21 2.22h93a34 34 0 0 1 6.37-15.57H9.72a2.21 2.21 0 0 0-2.21 2.21z"/><rect class="cls-2" x="23.55" y="88.98" width="26.81" height="71.21" rx="2.21"/><rect class="cls-2" x="76.38" y="88.98" width="26.81" height="71.21" rx="2.21"/><path class="cls-2" d="M156 93.21v-2a2.21 2.21 0 0 0-2.18-2.21h-22.39a2.21 2.21 0 0 0-2.21 2.22v13.62a35.44 35.44 0 0 1 26.24-11.64z"/><circle class="cls-2" cx="155.46" cy="128.7" r="25.55" transform="rotate(-6.26 155.556 128.829)"/><path class="cls-2" d="M161 156.5h-9.49c-16.22 0-39 17.24-39 32.14v2.51c0 3.92 1.8 4 6.74 4h74c4.94 0 6.74-.06 6.74-4v-2.51C200 173.74 181 156.5 161 156.5z"/></g></svg>